<svg width="56" height="48" viewBox="0 0 56 48" fill="none" xmlns="http://www.w3.org/2000/svg">
<path fill-rule="evenodd" clip-rule="evenodd" d="M54.5976 43.8612C54.5882 43.8896 54.5764 43.9181 54.5623 43.9442L54.5628 43.9438C54.5487 43.9723 54.5345 43.9984 54.5063 44.0174C54.4953 44.0348 54.4844 44.0501 54.4734 44.0654C54.4679 44.0731 54.4624 44.0807 54.4569 44.0886C54.4381 44.1123 54.417 44.1385 54.3958 44.1622C54.377 44.1812 54.3582 44.2002 54.337 44.2191C54.3135 44.2429 54.2876 44.2642 54.2617 44.2832C54.2509 44.2905 54.2389 44.2984 54.2266 44.3063C54.2148 44.3138 54.2027 44.3213 54.1912 44.3283C54.1841 44.3319 54.1772 44.3356 54.1704 44.3393C54.1656 44.342 54.1608 44.3447 54.156 44.3473C54.1402 44.3562 54.1241 44.3652 54.1065 44.3734C54.097 44.3782 54.0873 44.3825 54.0773 44.3864C54.0665 44.3908 54.0555 44.3948 54.0444 44.3988C54.0354 44.4021 54.0263 44.4055 54.0172 44.409C54.0109 44.4114 54.0049 44.414 53.9989 44.4167C53.9932 44.4192 53.9874 44.4217 53.9815 44.4239C53.975 44.4265 53.9681 44.4287 53.9607 44.4304C53.956 44.4315 53.9519 44.4315 53.9478 44.4315H53.9465C53.9428 44.4316 53.9391 44.4317 53.9349 44.4327C53.862 44.4517 53.7867 44.4636 53.7091 44.4636C53.6033 44.4636 53.5656 44.4802 53.5656 44.4802C53.5224 44.5308 53.4438 44.7839 53.394 44.9442L53.3893 44.9596C53.2058 45.5529 52.8225 46.787 51.2727 46.787C49.9471 46.787 49.2886 45.8988 48.8068 45.2489L48.8034 45.2444C48.3518 44.6297 48.1802 44.4635 47.8415 44.4635C47.5029 44.4635 47.3335 44.6296 46.8796 45.2419L46.8763 45.2465C46.3945 45.8963 45.7359 46.7846 44.408 46.7846C43.0823 46.7846 42.4238 45.8964 41.942 45.2465L41.9386 45.2419C41.4871 44.6297 41.3154 44.4635 40.9767 44.4635C40.6404 44.4635 40.4687 44.6297 40.0149 45.2444C39.5351 45.8946 38.8742 46.787 37.5455 46.787C36.2175 46.787 35.559 45.8988 35.0772 45.2489L35.0738 45.2444C34.6223 44.6321 34.4506 44.466 34.112 44.466C33.7733 44.466 33.604 44.6321 33.1501 45.2444C32.6703 45.8946 32.0118 46.787 30.6808 46.787C29.3551 46.787 28.6966 45.8988 28.2148 45.2489L28.2114 45.2444C27.7599 44.6321 27.5882 44.466 27.2495 44.466C26.9132 44.466 26.7416 44.6321 26.2877 45.2468C25.8079 45.897 25.1471 46.7894 23.8183 46.7894C22.4927 46.7894 21.8342 45.9012 21.3524 45.2514L21.349 45.2468C20.8974 44.6345 20.7258 44.4684 20.3871 44.4684C20.0508 44.4684 19.8791 44.6346 19.4252 45.2492C18.9455 45.8995 18.2846 46.7918 16.9559 46.7918C16.5349 46.7918 16.1516 46.6186 15.8811 46.3053C15.225 45.5507 15.3567 44.2644 15.6272 42.2281L15.6318 42.1929C15.7284 41.4561 15.8757 40.3326 15.8271 39.7861C14.0704 40.1324 11.5775 43.6854 10.2841 46.2698C10.1242 46.5926 9.79728 46.792 9.44452 46.792C9.42571 46.792 9.40689 46.792 9.38808 46.7896C9.01416 46.7683 8.68727 46.5238 8.56027 46.1678C8.34392 45.5645 6.49547 40.1941 8.41682 37.2228C9.13644 36.1121 10.3029 35.4737 11.7939 35.3764C13.0897 35.291 13.6823 34.9397 13.7952 34.6621C13.8705 34.477 13.7505 34.1613 13.4871 33.8599C12.7863 33.0554 11.22 32.4099 9.43745 32.8988C6.96565 33.5732 4.19536 36.917 3.26171 40.3534C2.9348 41.5614 2.58201 43.797 3.91782 45.1806C4.27998 45.558 4.27058 46.1584 3.899 46.5238C3.52507 46.8893 2.93247 46.8822 2.56795 46.5049C1.09341 44.979 0.695964 42.6153 1.44617 39.8528C2.41726 36.2739 5.48875 32.0092 8.94579 31.067C11.5209 30.3645 13.7903 31.3328 14.9003 32.6072C15.6694 33.4877 15.8998 34.5011 15.5353 35.3887C15.2179 36.16 14.3336 37.1141 11.916 37.2731C11.0153 37.3324 10.3874 37.6575 9.99467 38.2627C9.20214 39.4873 9.38557 41.6588 9.74538 43.3913C11.1565 41.1058 13.6329 37.7856 16.1963 37.8663C16.6102 37.8806 16.9841 38.0609 17.2475 38.3766C17.5109 38.6898 17.6402 39.0957 17.6872 39.5988C19.4181 38.443 21.9442 37.2991 26.9298 36.7912C21.5253 14.6964 31.685 2.25821 32.1459 1.71C32.1498 1.70603 32.1538 1.7029 32.1575 1.6999C32.1628 1.69571 32.1677 1.69179 32.1718 1.68626C32.2 1.65541 32.2282 1.6293 32.2588 1.6032C32.2776 1.58421 32.2964 1.5676 32.3176 1.55336C32.3465 1.53392 32.3754 1.51766 32.4056 1.50068L32.4258 1.48928C32.4446 1.47742 32.4634 1.46555 32.4846 1.45606C32.5293 1.43707 32.5739 1.42283 32.621 1.41096C32.6319 1.40938 32.6429 1.40569 32.6539 1.402L32.6539 1.40199C32.6594 1.40014 32.6649 1.3983 32.6704 1.39673C32.7338 1.38249 32.7997 1.37537 32.8679 1.37537L33.0066 1.38011C33.2841 1.38011 33.5452 1.50115 33.7239 1.71474C34.1848 2.26032 44.2949 14.6349 38.9871 36.6228C52.8667 37.4439 54.5647 43.0329 54.6305 43.2773C54.6329 43.2868 54.6329 43.2987 54.6352 43.3082L54.6493 43.4007C54.654 43.434 54.6587 43.4672 54.6587 43.5004C54.6587 43.5027 54.6589 43.505 54.6591 43.5073L54.6599 43.5147C54.6602 43.5172 54.6605 43.5198 54.6608 43.5223C54.661 43.5245 54.6611 43.5267 54.6611 43.5289C54.6611 43.5352 54.6608 43.5413 54.6604 43.5473C54.6596 43.5574 54.6584 43.5673 54.6571 43.5778L54.6564 43.5835L54.6561 43.5869C54.6539 43.6191 54.6514 43.6534 54.6446 43.6855C54.6434 43.6927 54.6421 43.6999 54.6406 43.7071C54.6394 43.7132 54.6381 43.7193 54.6368 43.7253C54.6333 43.7405 54.6296 43.7558 54.6258 43.771L54.621 43.7875L54.6177 43.7991C54.6117 43.8204 54.6058 43.8413 54.5976 43.8612ZM33.8081 39.5466H36.2398C41.5949 21.8735 36.5573 9.95955 33.8081 5.22964V39.5466ZM31.9267 5.47874V39.5466H29.6338C24.3824 22.2174 29.1564 10.3792 31.9267 5.47874ZM51.599 44.42L51.6038 44.4046L51.6031 44.4047C51.7136 44.0486 51.9017 43.4648 52.365 43.0543C51.3235 41.7252 48.0381 38.996 38.5018 38.5C38.2949 39.2523 38.0714 40.0141 37.8269 40.7878C37.7022 41.1817 37.34 41.4499 36.9308 41.4499H28.94C28.5307 41.4499 28.1686 41.1817 28.0439 40.7878C27.8182 40.0663 27.6112 39.3567 27.416 38.6566C21.3696 39.2309 19.206 40.7617 17.5528 42.0527C17.5454 42.1083 17.5385 42.1635 17.5314 42.2192C17.5204 42.3062 17.5092 42.3944 17.4963 42.487C17.4046 43.18 17.2635 44.2479 17.2917 44.8175C17.4634 44.7155 17.6375 44.5066 17.9197 44.1222L17.923 44.1176C18.4048 43.4678 19.0634 42.5795 20.3913 42.5795C21.717 42.5795 22.3755 43.4677 22.8573 44.1176L22.8607 44.1222C23.3122 44.7344 23.4839 44.9006 23.8226 44.9006C24.1612 44.9006 24.3306 44.7345 24.7844 44.1222L24.7878 44.1176C25.2696 43.4678 25.9282 42.5795 27.2561 42.5795C28.5818 42.5795 29.2402 43.4677 29.722 44.1176L29.7254 44.1222C30.1794 44.7344 30.351 44.9006 30.6873 44.9006C31.026 44.9006 31.1953 44.7345 31.6492 44.1222C32.129 43.4719 32.7875 42.5795 34.1185 42.5795C35.4442 42.5795 36.1027 43.4677 36.5845 44.1176L36.5879 44.1222C37.0418 44.7369 37.2134 44.903 37.5521 44.903C37.8907 44.903 38.0601 44.7369 38.514 44.1246L38.5173 44.1201C38.9991 43.4702 39.6577 42.582 40.9857 42.582C42.3113 42.582 42.9698 43.4702 43.4516 44.12L43.455 44.1246C43.9065 44.7369 44.0782 44.903 44.4169 44.903C44.7555 44.903 44.9272 44.7368 45.3811 44.1222C45.8609 43.4719 46.5217 42.5795 47.8504 42.5795C49.1784 42.5795 49.8369 43.4677 50.3187 44.1176L50.3221 44.1222C50.776 44.7344 50.9477 44.9006 51.284 44.9006C51.3898 44.9006 51.4274 44.884 51.4274 44.884C51.4707 44.8334 51.5492 44.5804 51.599 44.42Z" fill="white"/>
<path d="M54.5623 43.9442L54.1224 43.7065L54.8802 44.3302L54.5623 43.9442ZM54.5976 43.8612L54.1354 43.6703L54.1285 43.6871L54.1228 43.7043L54.5976 43.8612ZM54.5628 43.9438L55.0108 44.1658L54.2449 43.5579L54.5628 43.9438ZM54.5063 44.0174L54.2272 43.6026L54.1396 43.6615L54.0834 43.7508L54.5063 44.0174ZM54.4734 44.0654L54.8796 44.3569L54.8797 44.3569L54.4734 44.0654ZM54.4569 44.0886L54.8487 44.3992L54.8587 44.3867L54.8677 44.3736L54.4569 44.0886ZM54.3958 44.1622L54.7509 44.5141L54.7602 44.5048L54.769 44.495L54.3958 44.1622ZM54.337 44.2191L54.0031 43.847L53.9922 43.8568L53.9818 43.8672L54.337 44.2191ZM54.2617 44.2832L54.5408 44.6981L54.5493 44.6924L54.5576 44.6863L54.2617 44.2832ZM54.2266 44.3063L53.9573 43.885L53.9572 43.885L54.2266 44.3063ZM54.1912 44.3283L54.4164 44.7747L54.4337 44.766L54.4501 44.756L54.1912 44.3283ZM54.1704 44.3393L53.9294 43.9012L53.9292 43.9013L54.1704 44.3393ZM54.156 44.3473L53.9117 43.9111L53.9116 43.9111L54.156 44.3473ZM54.1065 44.3734L53.8954 43.9202L53.8883 43.9235L53.8813 43.927L54.1065 44.3734ZM54.0773 44.3864L53.8912 43.9224L53.8911 43.9224L54.0773 44.3864ZM54.0444 44.3988L53.873 43.9291L53.873 43.9292L54.0444 44.3988ZM54.0172 44.409L54.194 44.8767L54.1981 44.8751L54.0172 44.409ZM53.9989 44.4167L54.1997 44.8746L54.1999 44.8745L53.9989 44.4167ZM53.9815 44.4239L54.1607 44.8907L54.161 44.8906L53.9815 44.4239ZM53.9607 44.4304L53.8513 43.9423L53.8383 43.9456L53.9607 44.4304ZM53.9465 44.4315V43.9315L53.9449 43.9315L53.9465 44.4315ZM53.9349 44.4327L53.8128 43.9479L53.8088 43.9489L53.9349 44.4327ZM53.5656 44.4802L53.3637 44.0228L53.2597 44.0687L53.1858 44.1551L53.5656 44.4802ZM53.394 44.9442L53.8715 45.0926L53.8716 45.0924L53.394 44.9442ZM53.3893 44.9596L52.9118 44.8112L52.9116 44.8119L53.3893 44.9596ZM48.8068 45.2489L48.405 45.5465L48.4051 45.5467L48.8068 45.2489ZM48.8034 45.2444L48.4004 45.5404L48.4016 45.5419L48.8034 45.2444ZM46.8796 45.2419L47.2812 45.5398L47.2813 45.5397L46.8796 45.2419ZM46.8763 45.2465L46.4747 44.9486L46.4746 44.9487L46.8763 45.2465ZM41.942 45.2465L42.3437 44.9487L42.3436 44.9486L41.942 45.2465ZM41.9386 45.2419L41.5362 45.5387L41.5371 45.5398L41.9386 45.2419ZM40.0149 45.2444L39.6126 44.9473L39.6125 44.9475L40.0149 45.2444ZM35.0772 45.2489L35.4789 44.9511L35.4789 44.9511L35.0772 45.2489ZM35.0738 45.2444L34.6714 45.5411L34.6722 45.5421L35.0738 45.2444ZM33.1501 45.2444L32.7484 44.9466L32.7477 44.9475L33.1501 45.2444ZM28.2148 45.2489L28.6165 44.9512L28.6164 44.9511L28.2148 45.2489ZM28.2114 45.2444L27.809 45.5411L27.8098 45.5422L28.2114 45.2444ZM26.2877 45.2468L25.8854 44.9498L25.8853 44.9499L26.2877 45.2468ZM21.3524 45.2514L21.7541 44.9536L21.754 44.9535L21.3524 45.2514ZM21.349 45.2468L20.9466 45.5436L20.9474 45.5446L21.349 45.2468ZM19.4252 45.2492L19.023 44.9522L19.0229 44.9524L19.4252 45.2492ZM15.8811 46.3053L16.2596 45.9786L16.2585 45.9773L15.8811 46.3053ZM15.6272 42.2281L16.1228 42.2939L16.1229 42.2931L15.6272 42.2281ZM15.6318 42.1929L15.136 42.1279L15.136 42.1279L15.6318 42.1929ZM15.8271 39.7861L16.3251 39.7418L16.2758 39.188L15.7303 39.2955L15.8271 39.7861ZM10.2841 46.2698L9.83693 46.0461L9.83603 46.0479L10.2841 46.2698ZM9.38808 46.7896L9.45064 46.2935L9.43365 46.2914L9.41656 46.2904L9.38808 46.7896ZM8.56027 46.1678L9.0312 45.9998L9.03092 45.999L8.56027 46.1678ZM8.41682 37.2228L7.99719 36.951L7.99695 36.9513L8.41682 37.2228ZM11.7939 35.3764L11.8265 35.8754L11.8268 35.8754L11.7939 35.3764ZM13.7952 34.6621L14.2584 34.8504L14.2584 34.8504L13.7952 34.6621ZM13.4871 33.8599L13.1101 34.1884L13.1106 34.1889L13.4871 33.8599ZM9.43745 32.8988L9.56905 33.3811L9.56969 33.381L9.43745 32.8988ZM3.26171 40.3534L2.7792 40.2223L2.77907 40.2228L3.26171 40.3534ZM3.91782 45.1806L4.27855 44.8344L4.27752 44.8333L3.91782 45.1806ZM3.899 46.5238L4.24849 46.8814L4.24962 46.8803L3.899 46.5238ZM2.56795 46.5049L2.92756 46.1575L2.9275 46.1574L2.56795 46.5049ZM1.44617 39.8528L1.92869 39.9838L1.92872 39.9837L1.44617 39.8528ZM8.94579 31.067L9.07726 31.5494L9.07737 31.5494L8.94579 31.067ZM14.9003 32.6072L14.5233 32.9356L14.5238 32.9362L14.9003 32.6072ZM15.5353 35.3887L15.9977 35.579L15.9978 35.5786L15.5353 35.3887ZM11.916 37.2731L11.8832 36.7741L11.8831 36.7741L11.916 37.2731ZM9.99467 38.2627L9.57524 37.9905L9.5749 37.991L9.99467 38.2627ZM9.74538 43.3913L9.25583 43.493L9.51116 44.7224L10.1708 43.654L9.74538 43.3913ZM16.1963 37.8663L16.2134 37.3666L16.212 37.3666L16.1963 37.8663ZM17.2475 38.3766L16.8636 38.6969L16.8648 38.6984L17.2475 38.3766ZM17.6872 39.5988L17.1894 39.6453L17.2675 40.4803L17.9649 40.0146L17.6872 39.5988ZM26.9298 36.7912L26.9805 37.2887L27.552 37.2304L27.4155 36.6724L26.9298 36.7912ZM32.1459 1.71L31.7908 1.35803L31.7764 1.37256L31.7632 1.38822L32.1459 1.71ZM32.1575 1.6999L32.4695 2.09061L32.4695 2.09061L32.1575 1.6999ZM32.1718 1.68626L31.8028 1.34881L31.7857 1.36759L31.7705 1.38801L32.1718 1.68626ZM32.2588 1.6032L32.5835 1.98344L32.5993 1.96993L32.614 1.95514L32.2588 1.6032ZM32.3176 1.55336L32.0385 1.1385L32.0385 1.13851L32.3176 1.55336ZM32.4056 1.50068L32.6507 1.93645L32.6513 1.93613L32.4056 1.50068ZM32.4258 1.48928L32.6715 1.92473L32.6822 1.91872L32.6925 1.91219L32.4258 1.48928ZM32.4846 1.45606L32.289 0.995784L32.28 0.999841L32.4846 1.45606ZM32.621 1.41096L32.5496 0.916081L32.5239 0.919792L32.4987 0.926155L32.621 1.41096ZM32.6539 1.402L32.8133 1.87593L32.8178 1.87435L32.6539 1.402ZM32.6539 1.40199L32.4945 0.928044L32.49 0.929631L32.6539 1.40199ZM32.6704 1.39673L32.5609 0.908845L32.5463 0.912129L32.5319 0.916284L32.6704 1.39673ZM32.8679 1.37537L32.885 0.875658L32.8764 0.875366H32.8679V1.37537ZM33.0066 1.38011L32.9896 1.87982L32.9981 1.88011H33.0066V1.38011ZM33.7239 1.71474L33.3405 2.03562L33.342 2.03742L33.7239 1.71474ZM38.9871 36.6228L38.501 36.5055L38.3608 37.0867L38.9576 37.122L38.9871 36.6228ZM54.6305 43.2773L55.116 43.1571L55.1133 43.1473L54.6305 43.2773ZM54.6352 43.3082L55.1295 43.2328L55.1261 43.2102L55.1206 43.1881L54.6352 43.3082ZM54.6493 43.4007L55.1444 43.3306L55.1436 43.3254L54.6493 43.4007ZM54.6591 43.5073L54.161 43.5526L54.1623 43.5636L54.6591 43.5073ZM54.6599 43.5147L54.1631 43.5709L54.1637 43.576L54.6599 43.5147ZM54.6608 43.5223L55.1589 43.4789L55.1588 43.4786L54.6608 43.5223ZM54.6604 43.5473L54.1617 43.511L54.1617 43.5111L54.6604 43.5473ZM54.6571 43.5778L54.161 43.5156L54.1609 43.5159L54.6571 43.5778ZM54.6564 43.5835L54.1602 43.5215L54.1586 43.5348L54.1576 43.5482L54.6564 43.5835ZM54.6561 43.5869L54.1574 43.5516L54.1574 43.5517L54.6561 43.5869ZM54.6446 43.6855L54.1555 43.5817L54.1532 43.5928L54.1513 43.6041L54.6446 43.6855ZM54.6406 43.7071L55.1308 43.8059L55.1308 43.8058L54.6406 43.7071ZM54.6368 43.7253L54.1489 43.6159L54.1489 43.616L54.6368 43.7253ZM54.6258 43.771L55.1055 43.912L55.1085 43.9017L55.1111 43.8913L54.6258 43.771ZM54.621 43.7875L54.1412 43.6464L54.1399 43.6513L54.621 43.7875ZM54.6177 43.7991L54.1366 43.6629L54.1364 43.6636L54.6177 43.7991ZM36.2398 39.5466V40.0466H36.6107L36.7183 39.6916L36.2398 39.5466ZM33.8081 39.5466H33.3081V40.0466H33.8081V39.5466ZM33.8081 5.22964L34.2404 4.97839L33.3081 3.3744V5.22964H33.8081ZM31.9267 39.5466V40.0466H32.4267V39.5466H31.9267ZM31.9267 5.47874H32.4267V3.57827L31.4915 5.23268L31.9267 5.47874ZM29.6338 39.5466L29.1553 39.6916L29.2629 40.0466H29.6338V39.5466ZM51.6038 44.4046L52.0814 44.5527L52.3126 43.8072L51.5387 43.9088L51.6038 44.4046ZM51.599 44.42L52.0765 44.5683L52.0766 44.5682L51.599 44.42ZM51.6031 44.4047L51.1255 44.2564L50.8941 45.0021L51.6682 44.9004L51.6031 44.4047ZM52.365 43.0543L52.6966 43.4285L53.0489 43.1163L52.7586 42.7458L52.365 43.0543ZM38.5018 38.5L38.5278 38.0007L38.1263 37.9798L38.0197 38.3674L38.5018 38.5ZM37.8269 40.7878L38.3036 40.9387L38.3036 40.9385L37.8269 40.7878ZM28.0439 40.7878L27.5668 40.9371L27.5672 40.9386L28.0439 40.7878ZM27.416 38.6566L27.8976 38.5223L27.7853 38.1193L27.3687 38.1589L27.416 38.6566ZM17.5528 42.0527L17.245 41.6586L17.0839 41.7845L17.0571 41.9872L17.5528 42.0527ZM17.5314 42.2192L18.0275 42.2819V42.2819L17.5314 42.2192ZM17.4963 42.487L17.0011 42.418L17.0007 42.4214L17.4963 42.487ZM17.2917 44.8175L16.7924 44.8423L16.8334 45.6715L17.5472 45.2474L17.2917 44.8175ZM17.9197 44.1222L17.5179 43.8245L17.5166 43.8263L17.9197 44.1222ZM17.923 44.1176L17.5214 43.8199L17.5213 43.82L17.923 44.1176ZM22.8573 44.1176L22.4556 44.4154L22.4557 44.4155L22.8573 44.1176ZM22.8607 44.1222L23.2631 43.8254L23.2623 43.8243L22.8607 44.1222ZM24.7844 44.1222L25.1861 44.4199L25.1862 44.4198L24.7844 44.1222ZM24.7878 44.1176L24.3861 43.8199L24.3861 43.82L24.7878 44.1176ZM29.722 44.1176L29.3204 44.4154L29.3204 44.4155L29.722 44.1176ZM29.7254 44.1222L30.1271 43.8244L30.127 43.8243L29.7254 44.1222ZM31.6492 44.1222L32.0509 44.4199L32.0515 44.419L31.6492 44.1222ZM36.5845 44.1176L36.9863 43.82L36.9861 43.8198L36.5845 44.1176ZM36.5879 44.1222L36.9901 43.8252L36.9897 43.8246L36.5879 44.1222ZM38.514 44.1246L38.1123 43.8268L38.1123 43.8269L38.514 44.1246ZM38.5173 44.1201L38.1157 43.8223L38.1157 43.8223L38.5173 44.1201ZM43.4516 44.12L43.0499 44.4178L43.05 44.4179L43.4516 44.12ZM43.455 44.1246L43.8574 43.8278L43.8566 43.8268L43.455 44.1246ZM45.3811 44.1222L45.7833 44.4192L45.7834 44.419L45.3811 44.1222ZM50.3187 44.1176L49.9171 44.4154L49.9171 44.4155L50.3187 44.1176ZM50.3221 44.1222L50.7238 43.8244L50.7237 43.8243L50.3221 44.1222ZM51.4274 44.884L51.6294 45.3414L51.7334 45.2954L51.8073 45.2091L51.4274 44.884ZM55.0022 44.182C55.0328 44.1253 55.0555 44.0689 55.0724 44.018L54.1228 43.7043C54.122 43.7069 54.1213 43.7086 54.121 43.7093C54.1207 43.7101 54.121 43.7091 54.1224 43.7065L55.0022 44.182ZM54.2449 43.5579L54.2445 43.5583L54.8802 44.3302L54.8806 44.3298L54.2449 43.5579ZM54.7854 44.4323C54.9333 44.3328 54.9958 44.196 55.0108 44.1658L54.1147 43.7219C54.1015 43.7486 54.1358 43.6641 54.2272 43.6026L54.7854 44.4323ZM54.8797 44.3569C54.8897 44.3428 54.9092 44.316 54.9293 44.2841L54.0834 43.7508C54.0828 43.7517 54.0815 43.7536 54.079 43.7572C54.0762 43.7613 54.073 43.7658 54.0671 43.7739L54.8797 44.3569ZM54.8677 44.3736C54.8706 44.3695 54.8738 44.3651 54.8796 44.3569L54.0672 43.7739C54.0621 43.781 54.0543 43.7919 54.0461 43.8036L54.8677 44.3736ZM54.769 44.495C54.7999 44.4602 54.8283 44.425 54.8487 44.3992L54.0651 43.778C54.048 43.7996 54.034 43.8167 54.0226 43.8294L54.769 44.495ZM54.6709 44.5913C54.7046 44.5611 54.7333 44.5319 54.7509 44.5141L54.0406 43.8102C54.0206 43.8304 54.0117 43.8392 54.0031 43.847L54.6709 44.5913ZM54.5576 44.6863C54.5988 44.656 54.6458 44.6178 54.6921 44.5711L53.9818 43.8672C53.9817 43.8673 53.9804 43.8686 53.9776 43.871C53.9747 43.8734 53.9709 43.8765 53.9659 43.8801L54.5576 44.6863ZM54.4958 44.7276C54.5112 44.7177 54.5265 44.7077 54.5408 44.6981L53.9827 43.8683C53.9753 43.8733 53.9666 43.879 53.9573 43.885L54.4958 44.7276ZM54.4501 44.756C54.4656 44.7466 54.4812 44.7369 54.4959 44.7275L53.9572 43.885C53.9483 43.8907 53.9398 43.896 53.9322 43.9006L54.4501 44.756ZM54.4113 44.7775C54.4154 44.7752 54.4167 44.7746 54.4164 44.7747L53.9659 43.8819C53.9516 43.8891 53.9391 43.8959 53.9294 43.9012L54.4113 44.7775ZM54.4003 44.7836C54.4053 44.7808 54.4086 44.779 54.4115 44.7774L53.9292 43.9013C53.9226 43.905 53.9163 43.9085 53.9117 43.9111L54.4003 44.7836ZM54.3177 44.8266C54.3548 44.8093 54.3865 44.7913 54.4004 44.7836L53.9116 43.9111C53.9031 43.9159 53.8993 43.918 53.8961 43.9197C53.8935 43.9211 53.8936 43.921 53.8954 43.9202L54.3177 44.8266ZM54.2634 44.8505C54.2821 44.843 54.3058 44.8329 54.3318 44.8198L53.8813 43.927C53.8883 43.9235 53.8924 43.9219 53.8912 43.9224L54.2634 44.8505ZM54.2158 44.8685C54.2256 44.865 54.2442 44.8582 54.2636 44.8505L53.8911 43.9224C53.8889 43.9233 53.8854 43.9246 53.873 43.9291L54.2158 44.8685ZM54.1981 44.8751C54.2017 44.8737 54.2061 44.8721 54.2158 44.8685L53.873 43.9292C53.8647 43.9322 53.8508 43.9372 53.8363 43.9429L54.1981 44.8751ZM54.1999 44.8745C54.2034 44.8729 54.2034 44.8729 54.2028 44.8732C54.202 44.8735 54.1987 44.8749 54.194 44.8767L53.8403 43.9413C53.8199 43.9491 53.8021 43.957 53.7978 43.9588L54.1999 44.8745ZM54.161 44.8906C54.1794 44.8835 54.1955 44.8764 54.1997 44.8746L53.7981 43.9587C53.7948 43.9602 53.7946 43.9602 53.7949 43.9601C53.7955 43.9599 53.7981 43.9588 53.802 43.9573L54.161 44.8906ZM54.0701 44.9183C54.1075 44.9099 54.1383 44.8993 54.1607 44.8907L53.8023 43.9572C53.8116 43.9536 53.8287 43.9475 53.8514 43.9425L54.0701 44.9183ZM53.9478 44.9315C53.9484 44.9315 54.0107 44.9334 54.0832 44.9151L53.8383 43.9456C53.9013 43.9297 53.9553 43.9315 53.9478 43.9315V44.9315ZM53.9465 44.9315H53.9478V43.9315H53.9465V44.9315ZM54.0569 44.9176C53.9997 44.932 53.9533 44.9315 53.948 44.9315L53.9449 43.9315C53.9323 43.9316 53.8784 43.9313 53.8128 43.9479L54.0569 44.9176ZM53.7091 44.9636C53.8379 44.9636 53.9561 44.9439 54.0609 44.9166L53.8088 43.9489C53.7678 43.9596 53.7355 43.9636 53.7091 43.9636V44.9636ZM53.5656 44.4802C53.7676 44.9376 53.7673 44.9377 53.7671 44.9378C53.767 44.9378 53.7668 44.9379 53.7667 44.938C53.7663 44.9381 53.766 44.9383 53.7657 44.9384C53.7651 44.9387 53.7645 44.9389 53.7639 44.9392C53.7627 44.9397 53.7615 44.9403 53.7603 44.9408C53.7579 44.9418 53.7555 44.9427 53.7532 44.9437C53.7486 44.9455 53.7442 44.9472 53.74 44.9488C53.7315 44.9519 53.7239 44.9544 53.7171 44.9564C53.7036 44.9605 53.6936 44.9626 53.6879 44.9637C53.6768 44.9657 53.6821 44.9636 53.7091 44.9636V43.9636C53.6303 43.9636 53.5639 43.9697 53.5074 43.9801C53.4791 43.9853 53.4531 43.9916 53.4292 43.9988C53.4173 44.0024 53.4058 44.0062 53.3949 44.0102C53.3895 44.0122 53.3841 44.0143 53.3789 44.0164C53.3763 44.0174 53.3738 44.0185 53.3712 44.0195C53.3699 44.0201 53.3687 44.0206 53.3674 44.0212C53.3668 44.0214 53.3662 44.0217 53.3656 44.022C53.3652 44.0221 53.3649 44.0222 53.3646 44.0224C53.3645 44.0225 53.3642 44.0226 53.3642 44.0226C53.3639 44.0227 53.3637 44.0228 53.5656 44.4802ZM53.8716 45.0924C53.897 45.0105 53.9265 44.9157 53.9544 44.8357C53.9684 44.7954 53.9796 44.766 53.9874 44.7477C53.9914 44.7385 53.9922 44.7375 53.9898 44.7419C53.9886 44.7443 53.985 44.7508 53.9793 44.7599C53.974 44.7682 53.9629 44.785 53.9455 44.8053L53.1858 44.1551C53.1184 44.2338 53.0795 44.3275 53.0677 44.3552C53.0471 44.4036 53.0274 44.457 53.0102 44.5063C52.9755 44.6056 52.9409 44.7175 52.9165 44.796L53.8716 45.0924ZM53.8667 45.1079L53.8715 45.0926L52.9165 44.7959L52.9118 44.8112L53.8667 45.1079ZM51.2727 47.287C52.205 47.287 52.8279 46.9053 53.2306 46.412C53.6123 45.9446 53.7769 45.3985 53.8669 45.1073L52.9116 44.8119C52.8181 45.1141 52.6994 45.4816 52.4561 45.7795C52.2339 46.0517 51.8902 46.287 51.2727 46.287V47.287ZM48.4051 45.5467C48.8791 46.186 49.6727 47.287 51.2727 47.287V46.287C50.2214 46.287 49.6981 45.6116 49.2084 44.9512L48.4051 45.5467ZM48.4016 45.5419L48.405 45.5465L49.2086 44.9514L49.2052 44.9468L48.4016 45.5419ZM47.8415 44.9635C47.884 44.9635 47.8991 44.9686 47.9036 44.9702C47.9079 44.9717 47.9245 44.9778 47.9596 45.0072C48.047 45.0802 48.1686 45.2248 48.4004 45.5404L49.2063 44.9483C48.9866 44.6492 48.7966 44.4034 48.6007 44.2397C48.3657 44.0434 48.1236 43.9635 47.8415 43.9635V44.9635ZM47.2813 45.5397C47.5148 45.2247 47.6364 45.0803 47.7242 45.0069C47.7594 44.9776 47.7759 44.9715 47.7799 44.9701C47.7841 44.9686 47.799 44.9635 47.8415 44.9635V43.9635C47.5591 43.9635 47.3177 44.0436 47.0833 44.2393C46.8884 44.4021 46.6983 44.6469 46.478 44.9442L47.2813 45.5397ZM47.2779 45.5443L47.2812 45.5398L46.478 44.9441L46.4747 44.9486L47.2779 45.5443ZM44.408 47.2846C46.0101 47.2846 46.8038 46.1838 47.2779 45.5442L46.4746 44.9487C45.9852 45.6089 45.4617 46.2846 44.408 46.2846V47.2846ZM41.5404 45.5443C42.0143 46.1835 42.8079 47.2846 44.408 47.2846V46.2846C43.3567 46.2846 42.8333 45.6092 42.3437 44.9487L41.5404 45.5443ZM41.5371 45.5398L41.5405 45.5444L42.3436 44.9486L42.3402 44.944L41.5371 45.5398ZM40.9767 44.9635C41.0192 44.9635 41.0344 44.9686 41.039 44.9702C41.0435 44.9718 41.0601 44.978 41.0953 45.0073C41.1828 45.0802 41.3044 45.2243 41.5362 45.5387L42.341 44.9451C42.1213 44.6473 41.9312 44.4022 41.7354 44.239C41.5006 44.0434 41.2587 43.9635 40.9767 43.9635V44.9635ZM40.4171 45.5414C40.6501 45.2258 40.7724 45.0807 40.8605 45.0072C40.8959 44.9776 40.9125 44.9714 40.9166 44.9699C40.9207 44.9685 40.9352 44.9635 40.9767 44.9635V43.9635C40.6949 43.9635 40.4536 44.044 40.2193 44.2397C40.024 44.4029 39.8335 44.6482 39.6126 44.9473L40.4171 45.5414ZM37.5455 47.287C39.149 47.287 39.9449 46.1814 40.4172 45.5412L39.6125 44.9475C39.1253 45.6078 38.5994 46.287 37.5455 46.287V47.287ZM34.6756 45.5467C35.1497 46.1863 35.9433 47.287 37.5455 47.287V46.287C36.4917 46.287 35.9683 45.6113 35.4789 44.9511L34.6756 45.5467ZM34.6722 45.5421L34.6756 45.5467L35.4789 44.9511L35.4755 44.9466L34.6722 45.5421ZM34.112 44.966C34.1545 44.966 34.1696 44.971 34.1743 44.9726C34.1787 44.9742 34.1954 44.9804 34.2305 45.0097C34.3181 45.0826 34.4396 45.2267 34.6714 45.5411L35.4762 44.9476C35.2565 44.6497 35.0665 44.4046 34.8706 44.2414C34.6358 44.0458 34.394 43.966 34.112 43.966V44.966ZM33.5518 45.5421C33.7853 45.2271 33.9069 45.0827 33.9947 45.0094C34.0299 44.98 34.0463 44.9739 34.0504 44.9725C34.0546 44.971 34.0695 44.966 34.112 44.966V43.966C33.8296 43.966 33.5882 44.046 33.3538 44.2417C33.1588 44.4045 32.9688 44.6493 32.7484 44.9466L33.5518 45.5421ZM30.6808 47.287C32.2868 47.287 33.0803 46.1811 33.5524 45.5412L32.7477 44.9475C32.2603 45.6081 31.7369 46.287 30.6808 46.287V47.287ZM27.8132 45.5467C28.2871 46.186 29.0807 47.287 30.6808 47.287V46.287C29.6295 46.287 29.1061 45.6116 28.6165 44.9512L27.8132 45.5467ZM27.8098 45.5422L27.8132 45.5468L28.6164 44.9511L28.613 44.9465L27.8098 45.5422ZM27.2495 44.966C27.292 44.966 27.3072 44.971 27.3118 44.9726C27.3163 44.9742 27.333 44.9804 27.3681 45.0097C27.4556 45.0826 27.5772 45.2267 27.809 45.5411L28.6138 44.9476C28.3941 44.6497 28.2041 44.4046 28.0082 44.2414C27.7734 44.0458 27.5315 43.966 27.2495 43.966V44.966ZM26.6899 45.5438C26.9229 45.2282 27.0452 45.0831 27.1333 45.0096C27.1687 44.98 27.1854 44.9738 27.1894 44.9724C27.1936 44.9709 27.208 44.966 27.2495 44.966V43.966C26.9677 43.966 26.7264 44.0465 26.4921 44.2422C26.2968 44.4054 26.1063 44.6507 25.8854 44.9498L26.6899 45.5438ZM23.8183 47.2894C25.4219 47.2894 26.2177 46.1838 26.69 45.5436L25.8853 44.9499C25.3981 45.6103 24.8723 46.2894 23.8183 46.2894V47.2894ZM20.9508 45.5491C21.4247 46.1884 22.2183 47.2894 23.8183 47.2894V46.2894C22.7671 46.2894 22.2437 45.6141 21.7541 44.9536L20.9508 45.5491ZM20.9474 45.5446L20.9508 45.5492L21.754 44.9535L21.7506 44.9489L20.9474 45.5446ZM20.3871 44.9684C20.4296 44.9684 20.4448 44.9734 20.4494 44.9751C20.4538 44.9766 20.4705 44.9828 20.5057 45.0121C20.5932 45.0851 20.7148 45.2292 20.9466 45.5436L21.7514 44.95C21.5317 44.6521 21.3416 44.407 21.1458 44.2439C20.911 44.0482 20.6691 43.9684 20.3871 43.9684V44.9684ZM19.8275 45.5462C20.0605 45.2307 20.1828 45.0855 20.2708 45.012C20.3063 44.9824 20.3229 44.9763 20.327 44.9748C20.3311 44.9733 20.3456 44.9684 20.3871 44.9684V43.9684C20.1052 43.9684 19.8639 44.0489 19.6297 44.2446C19.4343 44.4078 19.2439 44.6531 19.023 44.9522L19.8275 45.5462ZM16.9559 47.2918C18.5594 47.2918 19.3552 46.1863 19.8276 45.5461L19.0229 44.9524C18.5357 45.6127 18.0098 46.2918 16.9559 46.2918V47.2918ZM15.5027 46.6321C15.8702 47.0578 16.3928 47.2918 16.9559 47.2918V46.2918C16.677 46.2918 16.433 46.1794 16.2596 45.9786L15.5027 46.6321ZM15.1315 42.1623C14.9974 43.1717 14.8905 44.0423 14.9068 44.7587C14.9232 45.4791 15.0646 46.1282 15.5038 46.6334L16.2585 45.9773C16.0416 45.7278 15.9207 45.3565 15.9066 44.7359C15.8923 44.1114 15.9864 43.3207 16.1228 42.2939L15.1315 42.1623ZM15.136 42.1279L15.1314 42.1631L16.1229 42.2931L16.1275 42.2578L15.136 42.1279ZM15.329 39.8303C15.3487 40.052 15.3292 40.4272 15.2862 40.8699C15.2443 41.3014 15.1845 41.7582 15.136 42.1279L16.1275 42.2579C16.1757 41.8908 16.2378 41.4175 16.2815 40.9664C16.3242 40.5265 16.354 40.0667 16.3251 39.7418L15.329 39.8303ZM10.7312 46.4936C11.3642 45.2288 12.2923 43.7249 13.2721 42.5011C13.7621 41.8891 14.2562 41.3583 14.724 40.9641C15.2007 40.5624 15.6076 40.3389 15.9238 40.2766L15.7303 39.2955C15.1681 39.4063 14.6047 39.7569 14.0795 40.1995C13.5454 40.6496 13.006 41.2335 12.4915 41.8761C11.4624 43.1616 10.4974 44.7264 9.83694 46.0461L10.7312 46.4936ZM9.44452 47.292C9.98616 47.292 10.4873 46.9859 10.7321 46.4918L9.83603 46.0479C9.76101 46.1993 9.6084 46.292 9.44452 46.292V47.292ZM9.32552 47.2857C9.38062 47.2926 9.43081 47.292 9.44452 47.292V46.292C9.43949 46.292 9.43676 46.292 9.43435 46.2919C9.43217 46.2919 9.43162 46.2919 9.43206 46.2919C9.43277 46.2919 9.43985 46.2922 9.45064 46.2935L9.32552 47.2857ZM8.08934 46.3358C8.28358 46.8803 8.7842 47.256 9.3596 47.2888L9.41656 46.2904C9.24411 46.2806 9.09096 46.1673 9.0312 45.9998L8.08934 46.3358ZM7.99695 36.9513C6.93295 38.5968 6.93949 40.8398 7.19168 42.6522C7.44749 44.4907 7.97641 46.0209 8.08962 46.3366L9.03092 45.999C8.92778 45.7114 8.4243 44.2548 8.18213 42.5144C7.93634 40.748 7.97934 38.8202 8.83668 37.4943L7.99695 36.9513ZM11.7613 34.8775C10.1357 34.9836 8.81455 35.6894 7.99719 36.951L8.83645 37.4947C9.45832 36.5349 10.47 35.9639 11.8265 35.8754L11.7613 34.8775ZM13.332 34.4738C13.3526 34.423 13.3335 34.5116 13.0481 34.6289C12.7883 34.7356 12.373 34.8372 11.761 34.8775L11.8268 35.8754C12.5106 35.8303 13.0395 35.7135 13.4281 35.5538C13.7912 35.4047 14.1249 35.1788 14.2584 34.8504L13.332 34.4738ZM13.1106 34.1889C13.2128 34.3059 13.2733 34.4104 13.3012 34.4834C13.315 34.5193 13.3172 34.5381 13.3174 34.5405C13.3176 34.5432 13.3148 34.5162 13.332 34.4738L14.2584 34.8504C14.3651 34.5879 14.3085 34.3176 14.2351 34.1258C14.156 33.9193 14.0248 33.7154 13.8636 33.5309L13.1106 34.1889ZM9.56969 33.381C11.1783 32.9398 12.5429 33.5372 13.1101 34.1884L13.8641 33.5315C13.0297 32.5736 11.2618 31.88 9.3052 32.4166L9.56969 33.381ZM3.74422 40.4845C4.1905 38.8419 5.0804 37.2098 6.1578 35.9093C7.24306 34.5993 8.47243 33.6803 9.56905 33.3811L9.30584 32.4164C7.93066 32.7916 6.53899 33.8817 5.38774 35.2714C4.22864 36.6705 3.26657 38.4285 2.7792 40.2223L3.74422 40.4845ZM4.27752 44.8333C3.72401 44.26 3.50063 43.491 3.46578 42.6797C3.43093 41.8682 3.58779 41.0626 3.74435 40.484L2.77907 40.2228C2.60873 40.8523 2.42573 41.7685 2.46671 42.7226C2.50769 43.677 2.77581 44.7176 3.55811 45.5279L4.27752 44.8333ZM4.24962 46.8803C4.81628 46.3229 4.83035 45.4093 4.27855 44.8344L3.55708 45.5268C3.72961 45.7066 3.72487 45.9938 3.54838 46.1674L4.24962 46.8803ZM2.20834 46.8523C2.76603 47.4296 3.6768 47.4402 4.24849 46.8814L3.54951 46.1663C3.37335 46.3385 3.09891 46.3349 2.92756 46.1575L2.20834 46.8523ZM0.963644 39.7217C0.185517 42.587 0.569747 45.1566 2.2084 46.8523L2.9275 46.1574C1.61707 44.8014 1.20641 42.6435 1.92869 39.9838L0.963644 39.7217ZM8.81431 30.5846C6.94656 31.0936 5.23241 32.4809 3.87522 34.1564C2.51341 35.8376 1.46873 37.8603 0.963615 39.7218L1.92872 39.9837C2.3947 38.2664 3.3713 36.3672 4.65228 34.7858C5.93786 33.1987 7.48798 31.9825 9.07726 31.5494L8.81431 30.5846ZM15.2774 32.2789C14.0424 30.861 11.5759 29.8312 8.8142 30.5846L9.07737 31.5494C11.4659 30.8978 13.5381 31.8046 14.5233 32.9356L15.2774 32.2789ZM15.9978 35.5786C16.4513 34.4744 16.1381 33.2643 15.2769 32.2783L14.5238 32.9362C15.2006 33.7111 15.3483 34.5279 15.0728 35.1987L15.9978 35.5786ZM11.9488 37.772C13.2171 37.6886 14.1289 37.3937 14.7798 36.9835C15.4362 36.5698 15.802 36.0543 15.9977 35.579L15.0729 35.1984C14.9511 35.4944 14.7161 35.8416 14.2466 36.1375C13.7716 36.4369 13.0325 36.6985 11.8832 36.7741L11.9488 37.772ZM10.4141 38.5349C10.7001 38.0942 11.163 37.8238 11.9489 37.772L11.8831 36.7741C10.8676 36.8411 10.0747 37.2209 9.57524 37.9905L10.4141 38.5349ZM10.2349 43.2896C10.0592 42.4436 9.93008 41.5055 9.93788 40.641C9.94578 39.7645 10.0944 39.0289 10.4144 38.5344L9.5749 37.991C9.10245 38.7211 8.94647 39.6835 8.93792 40.632C8.92925 41.5926 9.07171 42.6064 9.25583 43.493L10.2349 43.2896ZM16.212 37.3666C14.7158 37.3195 13.3265 38.2571 12.1868 39.3863C11.03 40.5325 10.0339 41.9723 9.31994 43.1286L10.1708 43.654C10.868 42.5248 11.8157 41.1617 12.8906 40.0967C13.9827 39.0146 15.1134 38.3325 16.1805 38.3661L16.212 37.3666ZM17.6314 38.0562C17.2751 37.6293 16.7669 37.3857 16.2134 37.3666L16.1791 38.366C16.4534 38.3755 16.693 38.4926 16.8636 38.6969L17.6314 38.0562ZM18.1851 39.5522C18.1328 38.9934 17.9834 38.4749 17.6302 38.0548L16.8648 38.6984C17.0384 38.9048 17.1476 39.1979 17.1894 39.6453L18.1851 39.5522ZM26.8791 36.2938C21.8274 36.8084 19.2199 37.9742 17.4096 39.183L17.9649 40.0146C19.6163 38.9119 22.0609 37.7898 26.9805 37.2887L26.8791 36.2938ZM31.7632 1.38822C31.243 2.00695 20.9882 14.6049 26.4441 36.91L27.4155 36.6724C22.0625 14.788 32.127 2.50948 32.5286 2.03177L31.7632 1.38822ZM31.8455 1.30919C31.8436 1.31076 31.8179 1.33066 31.7908 1.35803L32.5011 2.06196C32.4907 2.07239 32.4818 2.08027 32.476 2.08524C32.471 2.08951 32.4668 2.09278 32.4695 2.09061L31.8455 1.30919ZM31.7705 1.38801C31.792 1.35912 31.8129 1.33815 31.8274 1.32487C31.8396 1.3137 31.8504 1.30526 31.8455 1.30919L32.4695 2.09061C32.4699 2.09035 32.4858 2.07786 32.5028 2.0623C32.5221 2.04464 32.5475 2.01894 32.5731 1.98452L31.7705 1.38801ZM31.9341 1.22296C31.8934 1.25773 31.8491 1.29828 31.8028 1.34881L32.5407 2.02372C32.551 2.01254 32.5631 2.00088 32.5835 1.98344L31.9341 1.22296ZM32.0385 1.13851C31.9813 1.17698 31.937 1.21764 31.9036 1.25126L32.614 1.95514C32.6183 1.95078 32.6115 1.95822 32.5967 1.96821L32.0385 1.13851ZM32.1604 1.06491C32.1327 1.08051 32.0866 1.10617 32.0385 1.1385L32.5967 1.96822C32.6064 1.96167 32.6181 1.95481 32.6507 1.93645L32.1604 1.06491ZM32.18 1.05383L32.1599 1.06523L32.6513 1.93613L32.6715 1.92473L32.18 1.05383ZM32.28 0.999841C32.2215 1.02605 32.1738 1.05709 32.159 1.06638L32.6925 1.91219C32.6975 1.90902 32.7003 1.90728 32.7028 1.90575C32.705 1.90436 32.7057 1.90396 32.7055 1.9041C32.705 1.90439 32.699 1.90788 32.6892 1.91227L32.28 0.999841ZM32.4987 0.926155C32.4319 0.942985 32.362 0.964861 32.289 0.995874L32.6801 1.91624C32.6965 1.90928 32.7159 1.90268 32.7433 1.89577L32.4987 0.926155ZM32.4945 0.928097C32.4871 0.93056 32.4921 0.928813 32.4989 0.926846C32.5067 0.924591 32.5249 0.919643 32.5496 0.916081L32.6923 1.90585C32.7563 1.89663 32.8111 1.87666 32.8133 1.8759L32.4945 0.928097ZM32.49 0.929631L32.4899 0.929645L32.8178 1.87435L32.8179 1.87434L32.49 0.929631ZM32.5319 0.916284C32.5141 0.92141 32.4982 0.926842 32.4946 0.928066L32.8133 1.87591C32.8165 1.87484 32.8166 1.87479 32.8164 1.87488C32.8158 1.87505 32.813 1.87596 32.8088 1.87717L32.5319 0.916284ZM32.8679 0.875366C32.7647 0.875366 32.662 0.886171 32.5609 0.908845L32.7798 1.88461C32.8057 1.8788 32.8347 1.87537 32.8679 1.87537V0.875366ZM33.0237 0.880405L32.885 0.875658L32.8508 1.87507L32.9896 1.87982L33.0237 0.880405ZM34.1074 1.39386C33.8331 1.06611 33.4314 0.880112 33.0066 0.880112V1.88011C33.1369 1.88011 33.2573 1.93618 33.3405 2.03562L34.1074 1.39386ZM39.4731 36.7402C44.8316 14.5427 34.6269 2.00877 34.1059 1.39206L33.342 2.03742C33.7428 2.51187 43.7583 14.7272 38.501 36.5055L39.4731 36.7402ZM55.1133 43.1473C55.0531 42.9237 54.5494 41.362 52.2773 39.7579C50.0118 38.1583 46.0188 36.5379 39.0166 36.1237L38.9576 37.122C45.8349 37.5288 49.6307 39.1134 51.7006 40.5748C53.7638 42.0315 54.1421 43.3865 54.1477 43.4074L55.1133 43.1473ZM55.1206 43.1881C55.1255 43.2082 55.1279 43.2238 55.1289 43.2306C55.1294 43.2344 55.1297 43.2372 55.1299 43.2382C55.13 43.2391 55.13 43.2397 55.1299 43.238C55.1297 43.237 55.1294 43.2338 55.129 43.2302C55.1285 43.2265 55.1279 43.2211 55.127 43.2147C55.1253 43.2027 55.122 43.182 55.1159 43.1572L54.1452 43.3975C54.1402 43.3774 54.1378 43.3617 54.1368 43.3549C54.1363 43.3511 54.136 43.3484 54.1358 43.3473C54.1357 43.3464 54.1357 43.3459 54.1359 43.3475C54.136 43.3485 54.1363 43.3518 54.1367 43.3553C54.1372 43.359 54.1378 43.3644 54.1388 43.3708C54.1404 43.3828 54.1437 43.4035 54.1499 43.4283L55.1206 43.1881ZM55.1436 43.3254L55.1295 43.2328L54.1409 43.3835L54.155 43.4761L55.1436 43.3254ZM55.1587 43.5004C55.1587 43.426 55.1482 43.3577 55.1444 43.3307L54.1543 43.4708C54.1555 43.4795 54.1564 43.4856 54.1571 43.4914C54.1579 43.497 54.1583 43.5007 54.1586 43.5034C54.1592 43.5089 54.1587 43.5069 54.1587 43.5004H55.1587ZM55.157 43.4621C55.1577 43.4697 55.1587 43.4832 55.1587 43.5004H54.1587C54.1587 43.5222 54.16 43.5403 54.1611 43.5526L55.157 43.4621ZM55.1567 43.4584L55.1559 43.4511L54.1623 43.5636L54.1631 43.5709L55.1567 43.4584ZM55.1588 43.4786C55.1577 43.4657 55.1563 43.4543 55.1561 43.4533L54.1637 43.576C54.1639 43.5777 54.1638 43.5768 54.1636 43.5755C54.1634 43.5739 54.1631 43.5706 54.1627 43.5661L55.1588 43.4786ZM55.1611 43.5289C55.1611 43.5079 55.1599 43.4904 55.1589 43.4789L54.1627 43.5658C54.162 43.5586 54.1611 43.5455 54.1611 43.5289H55.1611ZM55.1591 43.5835C55.1602 43.5676 55.1611 43.5492 55.1611 43.5289H54.1611C54.1611 43.5212 54.1614 43.515 54.1617 43.511L55.1591 43.5835ZM55.1532 43.64C55.1542 43.6317 55.1572 43.6088 55.1591 43.5835L54.1617 43.5111C54.1619 43.5077 54.1622 43.5059 54.1621 43.5067C54.1619 43.5079 54.1617 43.5097 54.161 43.5156L55.1532 43.64ZM55.1525 43.6454L55.1532 43.6397L54.1609 43.5159L54.1602 43.5215L55.1525 43.6454ZM55.1549 43.6222L55.1551 43.6188L54.1576 43.5482L54.1574 43.5516L55.1549 43.6222ZM55.1337 43.7894C55.149 43.7174 55.1531 43.6478 55.1549 43.6221L54.1574 43.5517C54.1568 43.56 54.1564 43.5661 54.1559 43.5719C54.1555 43.5774 54.1551 43.5813 54.1548 43.5841C54.1542 43.5903 54.1541 43.5884 54.1555 43.5817L55.1337 43.7894ZM55.1308 43.8058C55.1332 43.7939 55.1356 43.7809 55.1379 43.767L54.1513 43.6041C54.1512 43.6045 54.151 43.6059 54.1505 43.6085L55.1308 43.8058ZM55.1246 43.8347C55.1267 43.8257 55.1287 43.8161 55.1308 43.8059L54.1505 43.6084C54.1501 43.6103 54.1496 43.6128 54.1489 43.6159L55.1246 43.8347ZM55.1111 43.8913C55.1147 43.8769 55.1198 43.8563 55.1247 43.8347L54.1489 43.616C54.1469 43.6248 54.1445 43.6346 54.1405 43.6507L55.1111 43.8913ZM55.1007 43.9285L55.1055 43.912L54.1461 43.6299L54.1413 43.6464L55.1007 43.9285ZM55.0988 43.9353L55.1021 43.9237L54.1399 43.6513L54.1366 43.6629L55.0988 43.9353ZM55.0597 44.052C55.081 44.0004 55.0944 43.9508 55.0989 43.9346L54.1364 43.6636C54.1348 43.6692 54.1338 43.6727 54.1329 43.676C54.132 43.6791 54.1315 43.6807 54.1313 43.6813C54.1308 43.6829 54.1321 43.6783 54.1354 43.6703L55.0597 44.052ZM36.2398 39.0466H33.8081V40.0466H36.2398V39.0466ZM33.3758 5.4809C36.0722 10.1199 41.0673 21.8904 35.7613 39.4016L36.7183 39.6916C42.1225 21.8567 37.0424 9.79917 34.2404 4.97839L33.3758 5.4809ZM34.3081 39.5466V5.22964H33.3081V39.5466H34.3081ZM32.4267 39.5466V5.47874H31.4267V39.5466H32.4267ZM29.6338 40.0466H31.9267V39.0466H29.6338V40.0466ZM31.4915 5.23268C28.6698 10.2239 23.8557 22.2035 29.1553 39.6916L30.1123 39.4016C24.909 22.2313 29.6429 10.5346 32.362 5.7248L31.4915 5.23268ZM51.1263 44.2564L51.1215 44.2719L52.0766 44.5682L52.0814 44.5527L51.1263 44.2564ZM51.6682 44.9004L51.6689 44.9003L51.5387 43.9088L51.538 43.9089L51.6682 44.9004ZM52.0334 42.6801C51.454 43.1935 51.2342 43.9063 51.1255 44.2564L52.0806 44.5529C52.193 44.191 52.3494 43.7362 52.6966 43.4285L52.0334 42.6801ZM38.4758 38.9993C47.9292 39.491 51.051 42.1882 51.9715 43.3627L52.7586 42.7458C51.5959 41.2623 48.1471 38.501 38.5278 38.0007L38.4758 38.9993ZM38.3036 40.9385C38.5502 40.1583 38.7754 39.3905 38.9839 38.6326L38.0197 38.3674C37.8143 39.1142 37.5926 39.8699 37.3501 40.6371L38.3036 40.9385ZM36.9308 41.9499C37.5618 41.9499 38.1142 41.5368 38.3036 40.9387L37.3502 40.6369C37.2901 40.8266 37.1183 40.9499 36.9308 40.9499V41.9499ZM28.94 41.9499H36.9308V40.9499H28.94V41.9499ZM27.5672 40.9386C27.7565 41.5369 28.309 41.9499 28.94 41.9499V40.9499C28.7525 40.9499 28.5806 40.8266 28.5207 40.637L27.5672 40.9386ZM26.9344 38.7909C27.1306 39.4948 27.3391 40.2096 27.5668 40.9371L28.5211 40.6385C28.2972 39.923 28.0918 39.2186 27.8976 38.5223L26.9344 38.7909ZM17.8605 42.4468C18.6731 41.8122 19.5853 41.139 21.0265 40.5486C22.4733 39.9559 24.4754 39.4382 27.4633 39.1544L27.3687 38.1589C24.3102 38.4494 22.2073 38.9842 20.6474 39.6232C19.0819 40.2645 18.0857 41.0021 17.245 41.6586L17.8605 42.4468ZM18.0275 42.2819C18.0345 42.226 18.0413 42.1722 18.0485 42.1182L17.0571 41.9872C17.0495 42.0444 17.0424 42.101 17.0354 42.1564L18.0275 42.2819ZM17.9916 42.556C18.005 42.4598 18.0165 42.3686 18.0275 42.2819L17.0354 42.1564C17.0243 42.2439 17.0135 42.329 17.0011 42.418L17.9916 42.556ZM17.7911 44.7928C17.7657 44.2803 17.8972 43.269 17.992 42.5526L17.0007 42.4214C16.912 43.091 16.7613 44.2156 16.7924 44.8423L17.7911 44.7928ZM17.5166 43.8263C17.219 44.2318 17.1039 44.3475 17.0363 44.3877L17.5472 45.2474C17.823 45.0835 18.0559 44.7815 18.3227 44.418L17.5166 43.8263ZM17.5213 43.82L17.5179 43.8245L18.3214 44.4198L18.3248 44.4153L17.5213 43.82ZM20.3913 42.0795C18.7892 42.0795 17.9955 43.1803 17.5214 43.8199L18.3247 44.4154C18.8141 43.7552 19.3376 43.0795 20.3913 43.0795V42.0795ZM23.2589 43.8198C22.785 43.1806 21.9914 42.0795 20.3913 42.0795V43.0795C21.4426 43.0795 21.966 43.7549 22.4556 44.4154L23.2589 43.8198ZM23.2623 43.8243L23.2589 43.8197L22.4557 44.4155L22.4591 44.42L23.2623 43.8243ZM23.8226 44.4006C23.7801 44.4006 23.7649 44.3955 23.7603 44.3939C23.7558 44.3923 23.7392 44.3861 23.704 44.3568C23.6165 44.2839 23.4949 44.1398 23.2631 43.8254L22.4583 44.419C22.678 44.7168 22.868 44.9619 23.0639 45.1251C23.2987 45.3207 23.5406 45.4006 23.8226 45.4006V44.4006ZM24.3828 43.8244C24.1492 44.1394 24.0277 44.2838 23.9398 44.3572C23.9047 44.3865 23.8882 44.3926 23.8841 44.394C23.8799 44.3955 23.8651 44.4006 23.8226 44.4006V45.4006C24.1049 45.4006 24.3463 45.3205 24.5807 45.1248C24.7757 44.962 24.9657 44.7172 25.1861 44.4199L24.3828 43.8244ZM24.3861 43.82L24.3827 43.8245L25.1862 44.4198L25.1895 44.4153L24.3861 43.82ZM27.2561 42.0795C25.6539 42.0795 24.8603 43.1803 24.3861 43.8199L25.1894 44.4154C25.6789 43.7552 26.2024 43.0795 27.2561 43.0795V42.0795ZM30.1237 43.8198C29.6498 43.1806 28.8561 42.0795 27.2561 42.0795V43.0795C28.3074 43.0795 28.8307 43.7549 29.3204 44.4154L30.1237 43.8198ZM30.127 43.8243L30.1236 43.8197L29.3204 44.4155L29.3238 44.42L30.127 43.8243ZM30.6873 44.4006C30.6458 44.4006 30.6312 44.3956 30.627 44.3941C30.6228 44.3926 30.606 44.3864 30.5706 44.3568C30.4825 44.2835 30.3602 44.1388 30.1271 43.8244L29.3238 44.42C29.5446 44.7178 29.7351 44.9624 29.9304 45.1251C30.1645 45.3202 30.4056 45.4006 30.6873 45.4006V44.4006ZM31.2475 43.8244C31.014 44.1394 30.8924 44.2838 30.8046 44.3572C30.7694 44.3865 30.753 44.3926 30.7489 44.394C30.7447 44.3955 30.7298 44.4006 30.6873 44.4006V45.4006C30.9697 45.4006 31.2111 45.3205 31.4455 45.1248C31.6405 44.962 31.8305 44.7172 32.0509 44.4199L31.2475 43.8244ZM34.1185 42.0795C32.5125 42.0795 31.719 43.1854 31.2469 43.8253L32.0515 44.419C32.539 43.7584 33.0624 43.0795 34.1185 43.0795V42.0795ZM36.9861 43.8198C36.5122 43.1806 35.7186 42.0795 34.1185 42.0795V43.0795C35.1698 43.0795 35.6931 43.7549 36.1828 44.4154L36.9861 43.8198ZM36.9897 43.8246L36.9863 43.82L36.1827 44.4152L36.1861 44.4198L36.9897 43.8246ZM37.5521 44.403C37.5096 44.403 37.4945 44.398 37.4899 44.3963C37.4855 44.3948 37.4687 44.3885 37.4334 44.3591C37.3454 44.2857 37.2232 44.1408 36.9901 43.8252L36.1856 44.4192C36.4065 44.7182 36.5971 44.9638 36.793 45.1272C37.028 45.3231 37.2699 45.403 37.5521 45.403V44.403ZM38.1123 43.8269C37.8788 44.1419 37.7572 44.2863 37.6694 44.3596C37.6342 44.389 37.6177 44.395 37.6137 44.3965C37.6095 44.398 37.5946 44.403 37.5521 44.403V45.403C37.8345 45.403 38.0759 45.3229 38.3103 45.1272C38.5052 44.9644 38.6953 44.7196 38.9156 44.4224L38.1123 43.8269ZM38.1157 43.8223L38.1123 43.8268L38.9156 44.4224L38.919 44.4179L38.1157 43.8223ZM40.9857 42.082C39.3835 42.082 38.5898 43.1827 38.1157 43.8223L38.919 44.4179C39.4085 43.7577 39.9319 43.082 40.9857 43.082V42.082ZM43.8532 43.8222C43.3793 43.183 42.5857 42.082 40.9857 42.082V43.082C42.0369 43.082 42.5603 43.7573 43.0499 44.4178L43.8532 43.8222ZM43.8566 43.8268L43.8532 43.8222L43.05 44.4179L43.0534 44.4225L43.8566 43.8268ZM44.4169 44.403C44.3744 44.403 44.3592 44.398 44.3546 44.3963C44.3502 44.3947 44.3335 44.3885 44.2983 44.3593C44.2108 44.2863 44.0892 44.1422 43.8574 43.8278L43.0526 44.4214C43.2723 44.7193 43.4624 44.9644 43.6582 45.1275C43.893 45.3232 44.1349 45.403 44.4169 45.403V44.403ZM44.9789 43.8252C44.7458 44.1408 44.6236 44.2857 44.5356 44.359C44.5002 44.3885 44.4835 44.3948 44.479 44.3963C44.4745 44.398 44.4594 44.403 44.4169 44.403V45.403C44.6991 45.403 44.9409 45.323 45.1759 45.1271C45.3719 44.9638 45.5625 44.7182 45.7833 44.4192L44.9789 43.8252ZM47.8504 42.0795C46.2469 42.0795 45.4511 43.1851 44.9788 43.8253L45.7834 44.419C46.2706 43.7587 46.7965 43.0795 47.8504 43.0795V42.0795ZM50.7204 43.8198C50.2462 43.1803 49.4526 42.0795 47.8504 42.0795V43.0795C48.9042 43.0795 49.4276 43.7552 49.9171 44.4154L50.7204 43.8198ZM50.7237 43.8243L50.7203 43.8197L49.9171 44.4155L49.9205 44.42L50.7237 43.8243ZM51.284 44.4006C51.2425 44.4006 51.2279 44.3956 51.2236 44.3941C51.2194 44.3926 51.2027 44.3864 51.1672 44.3568C51.0792 44.2835 50.9569 44.1388 50.7238 43.8244L49.9204 44.42C50.1413 44.7178 50.3318 44.9624 50.5271 45.1251C50.7612 45.3202 51.0022 45.4006 51.284 45.4006V44.4006ZM51.4274 44.884C51.2255 44.4266 51.2257 44.4265 51.2259 44.4264C51.226 44.4263 51.2262 44.4262 51.2264 44.4262C51.2267 44.426 51.227 44.4259 51.2273 44.4258C51.2279 44.4255 51.2285 44.4252 51.2292 44.425C51.2304 44.4244 51.2316 44.4239 51.2328 44.4234C51.2352 44.4224 51.2375 44.4214 51.2398 44.4205C51.2444 44.4186 51.2488 44.4169 51.2531 44.4154C51.2615 44.4123 51.2692 44.4098 51.276 44.4077C51.2895 44.4037 51.2995 44.4015 51.3052 44.4005C51.3163 44.3984 51.311 44.4006 51.284 44.4006V45.4006C51.3628 45.4006 51.4292 45.3944 51.4856 45.3841C51.5139 45.3789 51.54 45.3726 51.5639 45.3654C51.5758 45.3618 51.5872 45.358 51.5982 45.354C51.6036 45.352 51.609 45.3499 51.6142 45.3478C51.6168 45.3467 51.6193 45.3457 51.6219 45.3446C51.6231 45.3441 51.6244 45.3435 51.6257 45.343C51.6263 45.3427 51.6269 45.3424 51.6275 45.3422C51.6278 45.342 51.6282 45.3419 51.6285 45.3418C51.6286 45.3417 51.6289 45.3416 51.6289 45.3416C51.6292 45.3415 51.6294 45.3414 51.4274 44.884ZM51.1215 44.2718C51.0961 44.3537 51.0666 44.4485 51.0387 44.5285C51.0246 44.5688 51.0134 44.5981 51.0056 44.6165C51.0017 44.6257 51.0009 44.6267 51.0032 44.6223C51.0045 44.6198 51.008 44.6133 51.0138 44.6042C51.0191 44.5959 51.0302 44.5791 51.0476 44.5589L51.8073 45.2091C51.8746 45.1304 51.9135 45.0367 51.9254 45.0089C51.946 44.9606 51.9657 44.9072 51.9829 44.8579C52.0175 44.7586 52.0522 44.6467 52.0765 44.5683L51.1215 44.2718Z" fill="#222532"/>
</svg>
